<svg id="svg" version="1.1" xmlns="http://www.w3.org/2000/svg" xmlns:xlink="http://www.w3.org/1999/xlink" width="400" height="413.22314049586777" viewBox="0, 0, 400,413.22314049586777"><g id="svgg"><path id="path0" d="M0.027 159.500 C 0.042 247.225,0.200 318.640,0.378 318.200 C 1.193 316.186,2.394 311.902,3.012 308.800 C 3.385 306.930,4.015 304.320,4.412 303.000 C 4.808 301.680,5.258 299.610,5.412 298.400 C 5.677 296.315,6.511 292.492,8.991 282.000 C 9.589 279.470,10.858 275.232,11.810 272.583 C 12.763 269.934,13.668 267.234,13.820 266.583 C 13.973 265.932,14.515 264.050,15.025 262.400 C 16.702 256.974,18.095 251.833,18.438 249.800 C 18.624 248.700,19.036 247.080,19.353 246.200 C 19.671 245.320,20.009 243.332,20.106 241.782 C 20.216 240.010,20.655 238.081,21.287 236.582 C 22.265 234.267,22.998 231.237,24.199 224.554 C 24.520 222.768,25.133 220.490,25.561 219.490 C 25.989 218.491,26.457 216.802,26.601 215.737 C 26.949 213.154,28.657 207.000,29.588 204.974 C 29.999 204.079,30.635 202.315,31.002 201.053 C 31.368 199.792,32.193 197.603,32.834 196.189 C 33.475 194.774,34.000 193.352,34.000 193.028 C 34.000 192.704,34.616 191.035,35.369 189.319 C 36.122 187.604,36.857 185.660,37.002 185.000 C 37.347 183.432,38.831 179.506,39.262 179.020 C 39.448 178.811,39.600 178.230,39.600 177.729 C 39.600 176.471,41.085 172.648,43.690 167.200 C 44.900 164.670,46.019 162.150,46.177 161.600 C 46.458 160.618,46.617 160.233,48.400 156.200 C 50.251 152.012,52.788 147.173,54.310 144.931 C 55.179 143.649,56.439 141.520,57.109 140.200 C 58.731 137.005,61.799 132.747,64.602 129.800 C 65.965 128.367,67.366 126.352,68.079 124.800 C 69.709 121.250,71.938 118.435,78.686 111.400 C 81.851 108.100,85.985 103.780,87.872 101.800 C 97.612 91.581,106.755 85.043,115.348 82.154 C 117.013 81.594,119.145 80.610,120.087 79.967 C 121.029 79.324,122.917 78.447,124.283 78.017 C 125.649 77.588,127.646 76.631,128.722 75.891 C 129.895 75.084,132.022 74.184,134.039 73.641 C 135.887 73.143,139.920 71.910,143.000 70.900 C 150.281 68.513,152.544 68.383,190.779 68.153 C 216.200 68.001,220.142 68.058,222.888 68.618 C 226.677 69.391,235.687 72.431,238.764 73.975 C 239.994 74.592,242.872 75.752,245.160 76.553 C 249.540 78.087,256.697 82.140,261.293 85.690 C 262.672 86.755,265.147 88.540,266.793 89.656 C 268.440 90.772,272.130 94.035,274.993 96.907 C 277.857 99.780,281.190 102.956,282.400 103.965 C 284.652 105.844,290.171 111.821,292.957 115.400 C 293.814 116.500,294.804 117.676,295.157 118.013 C 296.713 119.495,300.172 123.788,301.760 126.205 C 302.711 127.653,304.947 130.427,306.729 132.370 C 308.510 134.313,310.597 136.975,311.365 138.287 C 312.134 139.598,313.059 140.917,313.421 141.217 C 314.534 142.141,317.415 146.073,318.831 148.600 C 319.570 149.920,320.501 151.355,320.900 151.789 C 322.527 153.559,324.441 156.739,325.226 158.976 C 326.249 161.889,327.815 164.749,330.822 169.200 C 332.967 172.374,335.600 177.114,335.600 177.802 C 335.600 177.968,336.265 179.026,337.079 180.152 C 340.021 184.226,344.802 193.184,346.446 197.702 C 347.106 199.516,348.006 201.990,348.447 203.200 C 348.887 204.410,349.573 206.418,349.970 207.663 C 350.368 208.908,351.081 210.471,351.555 211.137 C 352.596 212.599,353.600 215.331,353.600 216.702 C 353.600 217.252,354.123 218.625,354.762 219.751 C 356.168 222.230,359.866 231.391,360.634 234.295 C 360.938 235.448,361.659 237.293,362.236 238.396 C 362.813 239.499,363.433 240.986,363.615 241.701 C 366.173 251.771,367.078 254.687,368.335 256.913 C 369.464 258.913,373.299 269.757,374.803 275.200 C 376.951 282.977,379.161 289.599,380.476 292.200 C 380.810 292.860,381.296 294.272,381.557 295.337 C 381.817 296.403,382.293 297.676,382.615 298.167 C 382.937 298.658,383.634 300.306,384.164 301.830 C 385.416 305.427,386.800 308.723,388.518 312.200 C 389.278 313.740,390.383 316.350,390.972 318.000 C 391.561 319.650,393.018 322.980,394.209 325.400 C 396.214 329.470,396.975 331.727,398.755 338.877 C 399.121 340.350,399.552 341.685,399.711 341.844 C 399.870 342.003,400.000 265.153,400.000 171.067 L 400.000 0.000 200.000 0.000 L 0.000 0.000 0.027 159.500 M162.600 78.800 C 161.940 78.968,159.036 79.127,156.148 79.153 C 151.219 79.197,150.660 79.285,147.065 80.587 C 144.958 81.349,141.527 82.417,139.441 82.959 C 136.988 83.597,134.684 84.526,132.924 85.589 C 131.426 86.493,129.750 87.337,129.200 87.465 C 128.650 87.592,126.590 88.505,124.623 89.493 C 122.655 90.481,120.135 91.553,119.023 91.876 C 116.901 92.491,110.543 95.893,106.800 98.416 C 104.754 99.796,93.405 110.726,91.235 113.407 C 90.704 114.063,87.734 117.220,84.635 120.421 C 79.795 125.422,78.748 126.739,77.213 129.760 C 76.024 132.101,74.475 134.311,72.582 136.368 C 69.364 139.862,67.577 142.323,66.655 144.529 C 66.308 145.360,65.048 147.516,63.855 149.320 C 60.767 153.991,57.369 160.862,55.804 165.600 C 55.404 166.810,54.844 168.160,54.559 168.600 C 53.481 170.265,50.326 177.826,49.734 180.164 C 49.394 181.504,48.685 183.550,48.158 184.712 C 47.631 185.873,47.196 187.133,47.191 187.512 C 47.185 187.890,46.718 189.280,46.153 190.600 C 45.588 191.920,44.621 194.458,44.004 196.240 C 43.387 198.021,42.579 200.067,42.208 200.785 C 41.836 201.503,41.279 203.066,40.968 204.257 C 40.658 205.449,40.042 207.133,39.600 208.000 C 38.674 209.814,37.779 212.914,36.942 217.200 C 36.620 218.850,36.025 221.101,35.621 222.202 C 35.216 223.303,34.667 225.643,34.401 227.402 C 34.135 229.161,33.758 230.901,33.562 231.268 C 33.366 231.635,33.020 233.248,32.793 234.851 C 32.565 236.455,31.934 238.708,31.390 239.859 C 30.702 241.311,30.395 242.661,30.382 244.275 C 30.373 245.554,30.087 247.320,29.747 248.200 C 29.407 249.080,28.969 250.820,28.774 252.067 C 28.580 253.313,28.152 255.023,27.823 255.867 C 27.495 256.710,26.860 258.840,26.413 260.600 C 25.681 263.475,24.893 266.176,23.376 271.000 C 23.099 271.880,22.319 274.106,21.642 275.947 C 20.063 280.238,16.044 296.838,15.395 301.746 C 15.253 302.817,14.791 304.777,14.367 306.103 C 13.944 307.428,13.419 309.629,13.201 310.993 C 12.983 312.357,12.373 314.834,11.845 316.497 C 11.318 318.160,10.679 321.077,10.425 322.980 C 10.172 324.883,9.797 326.883,9.591 327.424 C 8.950 329.110,7.582 339.444,7.191 345.558 C 6.986 348.771,6.550 352.840,6.223 354.600 C 5.896 356.360,5.622 360.076,5.614 362.857 C 5.598 368.600,5.722 368.400,2.167 368.400 L 0.000 368.400 0.000 390.800 L 0.000 413.200 200.000 413.200 L 400.000 413.200 400.000 395.024 C 400.000 384.590,399.846 376.752,399.637 376.623 C 399.438 376.500,399.148 375.454,398.993 374.300 C 398.838 373.145,398.305 370.940,397.808 369.400 C 397.311 367.860,396.675 365.700,396.394 364.600 C 395.486 361.046,393.946 356.670,392.806 354.407 C 392.195 353.193,391.472 351.120,391.201 349.800 C 390.929 348.480,390.356 346.708,389.927 345.863 C 389.497 345.017,388.900 343.127,388.599 341.663 C 387.453 336.085,386.683 333.688,384.929 330.245 C 383.933 328.290,382.403 324.786,381.529 322.459 C 380.654 320.131,379.257 316.781,378.424 315.013 C 375.639 309.108,374.823 307.230,374.553 306.111 C 374.405 305.500,373.779 303.985,373.160 302.746 C 372.541 301.506,371.820 299.616,371.559 298.546 C 371.297 297.475,370.831 296.098,370.523 295.484 C 369.640 293.725,367.221 286.878,366.394 283.800 C 364.663 277.350,364.293 276.067,363.396 273.400 C 360.901 265.976,359.411 262.097,358.558 260.809 C 357.749 259.585,355.514 252.395,354.033 246.251 C 353.775 245.179,353.097 243.380,352.526 242.254 C 351.955 241.127,351.175 239.124,350.792 237.803 C 349.530 233.443,346.776 226.688,345.330 224.400 C 344.843 223.630,344.065 221.575,343.602 219.834 C 343.140 218.093,342.430 216.203,342.026 215.634 C 341.398 214.749,339.425 209.423,336.903 201.800 C 336.002 199.076,331.895 191.203,329.643 187.881 C 327.650 184.941,327.045 183.879,325.271 180.200 C 324.634 178.880,322.783 175.816,321.157 173.392 C 319.530 170.967,317.807 168.087,317.327 166.992 C 316.847 165.896,315.994 163.949,315.432 162.664 C 314.871 161.379,313.537 159.219,312.470 157.864 C 311.402 156.509,310.041 154.492,309.446 153.383 C 308.851 152.274,307.289 150.124,305.976 148.605 C 304.663 147.087,303.063 144.934,302.422 143.822 C 301.780 142.710,299.848 140.268,298.128 138.397 C 296.407 136.525,294.377 134.005,293.615 132.797 C 292.484 131.003,288.889 126.416,287.976 125.600 C 287.853 125.490,286.028 123.330,283.922 120.800 C 279.263 115.205,277.254 113.148,272.399 109.000 C 270.338 107.240,268.101 105.194,267.426 104.452 C 264.283 100.998,262.741 99.587,260.643 98.245 C 259.397 97.447,257.617 96.099,256.688 95.247 C 253.074 91.934,245.553 87.656,240.472 86.023 C 238.471 85.380,236.059 84.400,235.111 83.844 C 233.254 82.756,225.184 79.842,221.600 78.966 C 219.151 78.368,164.900 78.215,162.600 78.800 M266.801 162.664 C 269.111 164.029,270.184 167.317,269.038 169.520 C 266.631 174.146,260.429 173.737,258.815 168.846 C 257.349 164.403,262.714 160.250,266.801 162.664 M100.681 169.699 C 105.626 171.906,105.376 178.183,100.269 180.030 C 96.487 181.397,92.203 177.113,93.570 173.331 C 94.744 170.085,97.916 168.465,100.681 169.699 M181.160 206.180 C 186.041 208.703,181.751 216.741,175.495 216.794 C 175.107 216.797,174.443 217.016,174.019 217.281 C 172.427 218.275,169.200 215.614,169.200 213.306 C 169.200 211.231,171.808 208.800,174.033 208.800 C 174.541 208.800,175.450 208.327,176.053 207.750 C 178.236 205.658,179.438 205.289,181.160 206.180 M162.422 207.551 C 167.828 211.050,169.561 214.610,167.024 217.003 C 164.778 219.122,163.117 218.817,159.407 215.606 C 158.386 214.723,157.410 214.000,157.237 214.000 C 157.064 214.000,156.580 213.683,156.161 213.296 C 151.762 209.225,157.241 204.197,162.422 207.551 M208.000 238.374 C 209.870 238.651,212.030 239.155,212.800 239.494 C 215.112 240.512,217.829 240.863,225.600 241.149 C 229.670 241.299,233.360 241.568,233.800 241.747 C 234.240 241.926,234.960 242.228,235.400 242.417 C 237.150 243.170,241.959 243.301,277.000 243.546 C 317.986 243.832,314.986 243.579,316.759 246.900 C 318.162 249.529,317.207 252.375,314.388 253.958 L 312.877 254.808 275.538 254.656 C 236.475 254.497,233.798 254.386,230.200 252.768 C 229.760 252.570,226.160 252.342,222.200 252.260 C 214.731 252.107,211.445 251.708,209.146 250.678 C 205.328 248.966,187.711 248.813,182.400 250.445 C 180.530 251.020,178.010 251.703,176.800 251.962 C 173.167 252.740,166.851 254.480,164.881 255.244 C 164.376 255.440,163.616 255.600,163.193 255.600 C 162.770 255.600,161.834 255.923,161.112 256.319 C 160.390 256.714,158.990 257.286,158.000 257.591 C 157.010 257.895,156.020 258.258,155.800 258.397 C 155.580 258.536,154.410 258.881,153.200 259.164 C 151.990 259.446,149.596 260.110,147.879 260.639 C 146.163 261.167,143.823 261.601,142.679 261.603 C 141.536 261.605,139.430 261.963,138.000 262.400 C 136.325 262.911,134.244 263.195,132.150 263.197 C 130.116 263.199,128.246 263.446,127.150 263.858 C 124.311 264.927,118.454 265.263,99.430 265.448 C 79.997 265.638,78.472 265.498,75.216 263.226 C 74.657 262.836,73.349 262.404,72.308 262.267 C 62.497 260.973,54.400 255.057,54.400 249.182 C 54.400 242.529,62.088 240.533,65.116 246.400 C 66.155 248.413,71.031 250.465,76.059 251.005 C 77.503 251.160,78.946 251.642,80.059 252.342 C 83.445 254.471,83.151 254.441,99.217 254.248 C 115.536 254.052,121.233 253.682,124.000 252.637 C 124.990 252.264,127.870 251.798,130.400 251.603 C 132.930 251.408,135.990 250.970,137.200 250.629 C 138.410 250.288,140.220 250.007,141.222 250.005 C 142.225 250.002,144.115 249.660,145.422 249.244 C 146.730 248.828,148.843 248.257,150.119 247.975 C 151.394 247.694,152.530 247.314,152.642 247.132 C 152.755 246.949,153.102 246.800,153.414 246.800 C 153.725 246.800,155.159 246.260,156.600 245.600 C 158.041 244.940,159.835 244.400,160.586 244.400 C 161.338 244.400,162.064 244.220,162.200 244.000 C 162.336 243.780,162.799 243.600,163.229 243.600 C 163.659 243.600,164.323 243.438,164.705 243.239 C 165.511 242.820,169.121 241.853,173.800 240.801 C 175.936 240.321,182.342 238.553,184.000 237.985 C 185.464 237.484,204.028 237.785,208.000 238.374 M118.905 299.656 C 119.921 300.200,121.570 302.580,123.327 306.036 C 124.155 307.666,125.988 310.440,127.401 312.200 C 129.834 315.231,134.101 321.348,136.490 325.229 C 137.539 326.933,141.057 331.618,144.430 335.800 C 148.033 340.269,150.437 343.958,151.599 346.800 C 152.273 348.450,153.788 351.330,154.965 353.200 C 159.247 360.004,158.573 362.400,152.375 362.400 C 147.874 362.400,147.631 362.177,143.815 354.534 C 141.196 349.289,139.620 346.800,136.006 342.200 C 132.531 337.777,127.302 330.495,126.384 328.800 C 125.524 327.211,120.243 319.897,117.144 316.000 C 115.290 313.670,111.580 306.378,111.362 304.635 C 110.834 300.428,115.094 297.617,118.905 299.656 M333.566 302.982 C 335.562 304.015,336.144 305.945,336.328 312.150 C 336.646 322.822,335.046 327.946,329.553 333.850 C 328.130 335.380,326.686 337.507,325.795 339.384 C 324.543 342.021,322.378 345.118,319.954 347.736 C 319.579 348.142,318.728 349.492,318.063 350.736 C 317.397 351.981,316.127 353.990,315.241 355.200 C 311.308 360.570,308.717 364.827,307.634 367.700 L 307.220 368.800 302.710 368.753 C 295.621 368.678,294.543 368.157,296.501 365.753 C 297.018 365.119,298.387 362.710,299.543 360.400 C 301.809 355.874,308.449 345.722,312.432 340.694 C 313.785 338.986,315.757 335.963,316.813 333.976 C 318.686 330.453,320.693 327.677,322.883 325.582 C 325.193 323.371,325.693 321.329,325.958 313.000 C 326.216 304.884,326.469 303.915,328.600 302.853 C 329.794 302.258,332.290 302.323,333.566 302.982 M256.788 308.594 C 258.532 309.496,259.734 311.442,259.730 313.355 C 259.723 316.322,256.122 325.005,253.399 328.622 C 252.304 330.075,248.003 338.848,247.994 339.645 C 247.984 340.532,247.091 342.711,244.977 347.000 L 243.006 351.000 242.803 357.400 L 242.600 363.800 237.600 363.800 L 232.600 363.800 232.600 356.000 C 232.600 348.009,232.595 348.044,234.301 345.000 C 236.023 341.930,237.941 337.439,238.362 335.493 C 238.636 334.224,239.656 331.794,240.627 330.093 C 241.599 328.392,242.395 326.805,242.397 326.566 C 242.399 326.328,243.138 325.079,244.040 323.791 C 246.224 320.674,248.625 315.544,249.239 312.681 C 250.103 308.656,253.428 306.856,256.788 308.594 M55.059 324.811 C 57.630 325.707,64.438 334.204,65.622 337.995 C 66.068 339.423,66.670 340.953,66.959 341.395 C 67.249 341.838,67.774 343.190,68.127 344.400 C 68.479 345.610,69.315 347.461,69.984 348.514 C 70.653 349.567,71.200 350.529,71.200 350.652 C 71.200 351.354,81.481 365.632,82.391 366.195 C 83.646 366.970,82.250 367.199,76.300 367.194 C 69.079 367.187,69.249 367.232,68.044 365.000 C 67.569 364.120,66.103 361.870,64.785 360.000 C 63.468 358.130,61.910 355.700,61.324 354.600 C 59.209 350.629,58.403 348.994,58.402 348.666 C 58.401 348.482,57.770 347.053,57.000 345.490 C 56.230 343.927,55.600 342.168,55.600 341.582 C 55.600 340.272,53.538 337.501,51.040 335.455 C 45.430 330.857,48.567 322.548,55.059 324.811 " stroke="none" fill="#ffffff" fill-rule="evenodd"></path><path id="path1" d="M261.589 163.482 C 257.849 166.060,259.466 172.000,263.909 172.000 C 267.028 172.000,269.120 169.479,268.593 166.356 C 268.077 163.307,264.170 161.703,261.589 163.482 M97.355 170.263 C 94.254 170.916,93.123 175.708,95.508 178.092 C 99.059 181.643,105.018 177.726,103.069 173.121 C 102.094 170.816,99.912 169.725,97.355 170.263 M178.400 206.681 C 178.070 206.800,177.260 207.390,176.600 207.991 C 175.940 208.592,174.538 209.315,173.485 209.598 C 170.400 210.426,169.025 213.230,170.600 215.479 C 172.392 218.037,179.774 215.868,181.893 212.162 C 183.858 208.726,181.775 205.457,178.400 206.681 M157.718 207.278 C 154.442 208.135,154.307 211.835,157.490 213.497 C 158.320 213.932,159.625 214.872,160.389 215.587 C 162.814 217.857,165.679 218.164,166.989 216.295 C 169.245 213.073,162.106 206.130,157.718 207.278 M184.400 238.679 C 183.850 238.772,181.960 239.271,180.200 239.787 C 178.440 240.303,174.360 241.368,171.133 242.153 C 167.905 242.938,164.575 243.841,163.733 244.158 C 162.890 244.476,161.480 244.857,160.600 245.004 C 159.720 245.151,158.100 245.680,157.000 246.179 C 154.604 247.266,150.943 248.525,148.200 249.204 C 147.100 249.476,145.429 249.947,144.486 250.250 C 143.543 250.552,142.008 250.800,141.073 250.800 C 140.139 250.800,138.390 251.072,137.187 251.404 C 135.984 251.735,132.796 252.179,130.102 252.388 C 127.409 252.598,124.799 252.991,124.302 253.261 C 122.713 254.127,116.990 254.454,99.944 254.653 C 82.045 254.862,82.650 254.916,79.380 252.807 C 78.709 252.374,76.831 251.831,75.206 251.601 C 69.180 250.746,66.605 249.398,63.486 245.463 C 60.984 242.307,56.302 243.509,55.203 247.588 C 53.681 253.241,61.749 259.948,71.839 261.418 C 72.918 261.576,75.060 262.294,76.600 263.014 C 80.966 265.057,83.526 265.283,100.200 265.095 C 114.916 264.930,124.923 264.204,126.872 263.161 C 127.314 262.925,129.773 262.569,132.338 262.370 C 134.902 262.171,137.984 261.736,139.187 261.404 C 140.390 261.072,142.100 260.796,142.987 260.790 C 143.874 260.785,145.230 260.617,146.000 260.416 C 152.034 258.842,156.625 257.453,159.741 256.257 C 164.160 254.562,171.898 252.269,176.000 251.439 C 177.650 251.105,180.440 250.347,182.200 249.756 C 185.076 248.789,186.130 248.661,192.600 248.495 C 201.278 248.273,205.202 248.712,211.600 250.621 C 213.100 251.069,216.408 251.382,222.000 251.607 C 227.597 251.831,230.713 252.126,231.818 252.537 C 235.983 254.087,238.988 254.200,276.200 254.200 C 315.308 254.200,313.980 254.275,315.610 251.985 C 316.575 250.631,316.661 247.751,315.776 246.487 C 314.104 244.100,316.039 244.222,275.800 243.959 C 239.604 243.722,235.760 243.577,233.551 242.358 C 232.913 242.006,229.970 241.741,224.600 241.553 C 216.695 241.275,215.316 241.102,211.400 239.900 C 207.267 238.631,189.434 237.824,184.400 238.679 " stroke="none" fill="#0d0d0d" fill-rule="evenodd"></path><path id="path2" d="M162.654 68.279 C 162.501 68.433,159.276 68.674,155.488 68.815 C 148.700 69.069,148.518 69.099,143.000 70.904 C 139.920 71.912,135.887 73.143,134.039 73.641 C 132.022 74.184,129.895 75.084,128.722 75.891 C 127.646 76.631,125.649 77.588,124.283 78.017 C 122.917 78.447,121.029 79.324,120.087 79.967 C 119.145 80.610,117.013 81.594,115.348 82.154 C 106.755 85.043,97.612 91.581,87.872 101.800 C 85.985 103.780,81.851 108.100,78.686 111.400 C 71.938 118.435,69.709 121.250,68.079 124.800 C 67.366 126.352,65.965 128.367,64.602 129.800 C 61.799 132.747,58.731 137.005,57.109 140.200 C 56.439 141.520,55.179 143.649,54.310 144.931 C 52.788 147.173,50.251 152.012,48.400 156.200 C 46.617 160.233,46.458 160.618,46.177 161.600 C 46.019 162.150,44.900 164.670,43.690 167.200 C 41.085 172.648,39.600 176.471,39.600 177.729 C 39.600 178.230,39.448 178.811,39.262 179.020 C 38.831 179.506,37.347 183.432,37.002 185.000 C 36.857 185.660,36.122 187.604,35.369 189.319 C 34.616 191.035,34.000 192.704,34.000 193.028 C 34.000 193.352,33.475 194.774,32.834 196.189 C 32.193 197.603,31.368 199.792,31.002 201.053 C 30.635 202.315,29.999 204.079,29.588 204.974 C 28.657 207.000,26.949 213.154,26.601 215.737 C 26.457 216.802,25.989 218.491,25.561 219.490 C 25.133 220.490,24.520 222.768,24.199 224.554 C 22.998 231.237,22.265 234.267,21.287 236.582 C 20.655 238.081,20.216 240.010,20.106 241.782 C 20.009 243.332,19.671 245.320,19.353 246.200 C 19.036 247.080,18.624 248.700,18.438 249.800 C 18.095 251.833,16.702 256.974,15.025 262.400 C 14.515 264.050,13.973 265.932,13.820 266.583 C 13.668 267.234,12.763 269.934,11.810 272.583 C 10.858 275.232,9.589 279.470,8.991 282.000 C 6.511 292.492,5.677 296.315,5.412 298.400 C 5.258 299.610,4.808 301.680,4.412 303.000 C 4.015 304.320,3.387 306.930,3.017 308.800 C 2.646 310.670,1.991 313.280,1.562 314.600 C 1.133 315.920,0.606 317.553,0.391 318.228 C 0.154 318.974,0.000 329.085,0.000 343.928 L 0.000 368.400 2.167 368.400 C 5.722 368.400,5.598 368.600,5.614 362.857 C 5.622 360.076,5.896 356.360,6.223 354.600 C 6.550 352.840,6.986 348.771,7.191 345.558 C 7.582 339.444,8.950 329.110,9.591 327.424 C 9.797 326.883,10.172 324.883,10.425 322.980 C 10.679 321.077,11.318 318.160,11.845 316.497 C 12.373 314.834,12.983 312.357,13.201 310.993 C 13.419 309.629,13.944 307.428,14.367 306.103 C 14.791 304.777,15.253 302.817,15.395 301.746 C 16.044 296.838,20.063 280.238,21.642 275.947 C 22.319 274.106,23.099 271.880,23.376 271.000 C 24.893 266.176,25.681 263.475,26.413 260.600 C 26.860 258.840,27.495 256.710,27.823 255.867 C 28.152 255.023,28.580 253.313,28.774 252.067 C 28.969 250.820,29.407 249.080,29.747 248.200 C 30.087 247.320,30.373 245.554,30.382 244.275 C 30.395 242.661,30.702 241.311,31.390 239.859 C 31.934 238.708,32.565 236.455,32.793 234.851 C 33.020 233.248,33.366 231.635,33.562 231.268 C 33.758 230.901,34.135 229.161,34.401 227.402 C 34.667 225.643,35.216 223.303,35.621 222.202 C 36.025 221.101,36.620 218.850,36.942 217.200 C 37.779 212.914,38.674 209.814,39.600 208.000 C 40.042 207.133,40.658 205.449,40.968 204.257 C 41.279 203.066,41.836 201.503,42.208 200.785 C 42.579 200.067,43.387 198.021,44.004 196.240 C 44.621 194.458,45.588 191.920,46.153 190.600 C 46.718 189.280,47.185 187.890,47.191 187.512 C 47.196 187.133,47.631 185.873,48.158 184.712 C 48.685 183.550,49.394 181.504,49.734 180.164 C 50.326 177.826,53.481 170.265,54.559 168.600 C 54.844 168.160,55.404 166.810,55.804 165.600 C 57.369 160.862,60.767 153.991,63.855 149.320 C 65.048 147.516,66.308 145.360,66.655 144.529 C 67.577 142.323,69.364 139.862,72.582 136.368 C 74.475 134.311,76.024 132.101,77.213 129.760 C 78.748 126.739,79.795 125.422,84.635 120.421 C 87.734 117.220,90.704 114.063,91.235 113.407 C 93.405 110.726,104.754 99.796,106.800 98.416 C 110.543 95.893,116.901 92.491,119.023 91.876 C 120.135 91.553,122.655 90.481,124.623 89.493 C 126.590 88.505,128.650 87.592,129.200 87.465 C 129.750 87.337,131.426 86.493,132.924 85.589 C 134.691 84.522,136.989 83.596,139.469 82.952 C 141.571 82.406,144.755 81.397,146.545 80.710 C 149.430 79.603,150.504 79.421,156.000 79.109 C 166.448 78.516,218.255 78.274,220.800 78.807 C 224.033 79.484,233.132 82.689,235.117 83.850 C 236.062 84.402,238.471 85.380,240.472 86.023 C 245.553 87.656,253.074 91.934,256.688 95.247 C 257.617 96.099,259.397 97.447,260.643 98.245 C 262.741 99.587,264.283 100.998,267.426 104.452 C 268.101 105.194,270.338 107.240,272.399 109.000 C 277.254 113.148,279.263 115.205,283.922 120.800 C 286.028 123.330,287.853 125.490,287.976 125.600 C 288.889 126.416,292.484 131.003,293.615 132.797 C 294.377 134.005,296.407 136.525,298.128 138.397 C 299.848 140.268,301.780 142.710,302.422 143.822 C 303.063 144.934,304.663 147.087,305.976 148.605 C 307.289 150.124,308.851 152.274,309.446 153.383 C 310.041 154.492,311.402 156.509,312.470 157.864 C 313.537 159.219,314.871 161.379,315.432 162.664 C 315.994 163.949,316.847 165.896,317.327 166.992 C 317.807 168.087,319.530 170.967,321.157 173.392 C 322.783 175.816,324.634 178.880,325.271 180.200 C 327.045 183.879,327.650 184.941,329.643 187.881 C 331.895 191.203,336.002 199.076,336.903 201.800 C 339.425 209.423,341.398 214.749,342.026 215.634 C 342.430 216.203,343.140 218.093,343.602 219.834 C 344.065 221.575,344.843 223.630,345.330 224.400 C 346.776 226.688,349.530 233.443,350.792 237.803 C 351.175 239.124,351.955 241.127,352.526 242.254 C 353.097 243.380,353.775 245.179,354.033 246.251 C 355.514 252.395,357.749 259.585,358.558 260.809 C 359.411 262.097,360.901 265.976,363.396 273.400 C 364.293 276.067,364.663 277.350,366.394 283.800 C 367.221 286.878,369.640 293.725,370.523 295.484 C 370.831 296.098,371.297 297.475,371.559 298.546 C 371.820 299.616,372.541 301.506,373.160 302.746 C 373.779 303.985,374.405 305.500,374.553 306.111 C 374.823 307.230,375.639 309.108,378.424 315.013 C 379.257 316.781,380.654 320.131,381.529 322.459 C 382.403 324.786,383.933 328.290,384.929 330.245 C 386.683 333.688,387.453 336.085,388.599 341.663 C 388.900 343.127,389.497 345.017,389.927 345.863 C 390.356 346.708,390.929 348.480,391.201 349.800 C 391.472 351.120,392.195 353.193,392.806 354.407 C 393.946 356.670,395.486 361.046,396.394 364.600 C 396.675 365.700,397.311 367.860,397.808 369.400 C 398.305 370.940,398.838 373.145,398.993 374.300 C 399.148 375.454,399.438 376.500,399.637 376.623 C 400.069 376.890,400.142 342.275,399.711 341.844 C 399.552 341.685,399.121 340.350,398.755 338.877 C 396.975 331.727,396.214 329.470,394.209 325.400 C 393.018 322.980,391.561 319.650,390.972 318.000 C 390.383 316.350,389.278 313.740,388.518 312.200 C 386.800 308.723,385.416 305.427,384.164 301.830 C 383.634 300.306,382.937 298.658,382.615 298.167 C 382.293 297.676,381.817 296.403,381.557 295.337 C 381.296 294.272,380.810 292.860,380.476 292.200 C 379.161 289.599,376.951 282.977,374.803 275.200 C 373.299 269.757,369.464 258.913,368.335 256.913 C 367.078 254.687,366.173 251.771,363.615 241.701 C 363.433 240.986,362.813 239.499,362.236 238.396 C 361.659 237.293,360.938 235.448,360.634 234.295 C 359.866 231.391,356.168 222.230,354.762 219.751 C 354.123 218.625,353.600 217.252,353.600 216.702 C 353.600 215.331,352.596 212.599,351.555 211.137 C 351.081 210.471,350.370 208.908,349.975 207.663 C 349.580 206.418,348.694 203.870,348.005 202.000 C 347.317 200.130,346.426 197.677,346.025 196.550 C 344.848 193.241,339.647 183.709,337.079 180.152 C 336.265 179.026,335.600 177.968,335.600 177.802 C 335.600 177.114,332.967 172.374,330.822 169.200 C 327.815 164.749,326.249 161.889,325.226 158.976 C 324.441 156.739,322.527 153.559,320.900 151.789 C 320.501 151.355,319.570 149.920,318.831 148.600 C 317.415 146.073,314.534 142.141,313.421 141.217 C 313.059 140.917,312.134 139.598,311.365 138.287 C 310.597 136.975,308.510 134.313,306.729 132.370 C 304.947 130.427,302.711 127.653,301.760 126.205 C 300.172 123.788,296.713 119.495,295.157 118.013 C 294.804 117.676,293.814 116.500,292.957 115.400 C 290.171 111.821,284.652 105.844,282.400 103.965 C 281.190 102.956,277.857 99.780,274.993 96.907 C 272.130 94.035,268.440 90.772,266.793 89.656 C 265.147 88.540,262.672 86.755,261.293 85.690 C 256.697 82.140,249.540 78.087,245.160 76.553 C 242.872 75.752,239.994 74.592,238.764 73.975 C 235.729 72.452,226.754 69.414,222.988 68.636 C 219.754 67.967,163.300 67.633,162.654 68.279 M261.800 162.382 C 259.502 163.332,258.040 166.498,258.815 168.846 C 260.429 173.737,266.631 174.146,269.038 169.520 C 271.205 165.355,266.301 160.520,261.800 162.382 M267.135 163.807 C 269.447 165.752,269.061 170.024,266.451 171.373 C 263.012 173.152,259.625 171.181,259.625 167.400 C 259.625 163.343,264.061 161.220,267.135 163.807 M96.800 169.724 C 91.969 171.993,92.290 178.207,97.331 180.030 C 101.113 181.397,105.397 177.113,104.030 173.331 C 102.853 170.078,99.552 168.431,96.800 169.724 M101.755 171.134 C 105.115 174.097,103.214 179.354,98.782 179.354 C 94.652 179.354,92.548 174.576,95.378 171.623 C 97.048 169.879,100.070 169.648,101.755 171.134 M178.074 206.189 C 177.565 206.470,176.656 207.172,176.053 207.750 C 175.450 208.327,174.541 208.800,174.033 208.800 C 171.808 208.800,169.200 211.231,169.200 213.306 C 169.200 215.614,172.427 218.275,174.019 217.281 C 174.443 217.016,175.107 216.797,175.495 216.794 C 180.207 216.754,185.012 210.927,182.941 207.765 C 181.710 205.887,179.765 205.257,178.074 206.189 M155.813 207.813 C 154.313 209.314,154.090 210.260,154.900 211.701 C 155.473 212.721,156.773 214.000,157.237 214.000 C 157.410 214.000,158.386 214.723,159.407 215.606 C 163.117 218.817,164.778 219.122,167.024 217.003 C 169.047 215.095,168.813 213.466,166.113 210.678 C 161.696 206.115,158.422 205.205,155.813 207.813 M181.818 207.382 C 185.210 210.774,177.945 217.789,172.300 216.573 C 168.588 215.774,169.453 210.681,173.485 209.598 C 174.538 209.315,175.940 208.592,176.600 207.991 C 178.661 206.114,180.353 205.917,181.818 207.382 M164.733 210.338 C 167.062 212.511,167.600 213.238,167.600 214.217 C 167.600 217.896,163.656 218.646,160.389 215.587 C 159.625 214.872,158.320 213.932,157.490 213.497 C 153.075 211.191,155.511 206.065,160.433 207.303 C 161.343 207.532,162.914 208.640,164.733 210.338 M184.000 237.985 C 182.342 238.553,175.936 240.321,173.800 240.801 C 169.121 241.853,165.511 242.820,164.705 243.239 C 164.323 243.438,163.659 243.600,163.229 243.600 C 162.799 243.600,162.336 243.780,162.200 244.000 C 162.064 244.220,161.338 244.400,160.586 244.400 C 159.835 244.400,158.041 244.940,156.600 245.600 C 155.159 246.260,153.725 246.800,153.414 246.800 C 153.102 246.800,152.755 246.949,152.642 247.132 C 152.530 247.314,151.394 247.694,150.119 247.975 C 148.843 248.257,146.730 248.828,145.422 249.244 C 144.115 249.660,142.225 250.002,141.222 250.005 C 140.220 250.007,138.410 250.288,137.200 250.629 C 135.990 250.970,132.930 251.408,130.400 251.603 C 127.870 251.798,124.990 252.264,124.000 252.637 C 121.233 253.682,115.536 254.052,99.217 254.248 C 83.151 254.441,83.445 254.471,80.059 252.342 C 78.946 251.642,77.503 251.160,76.059 251.005 C 71.031 250.465,66.155 248.413,65.116 246.400 C 62.088 240.533,54.400 242.529,54.400 249.182 C 54.400 255.057,62.497 260.973,72.308 262.267 C 73.349 262.404,74.657 262.836,75.216 263.226 C 78.472 265.498,79.997 265.638,99.430 265.448 C 118.454 265.263,124.311 264.927,127.150 263.858 C 128.246 263.446,130.116 263.199,132.150 263.197 C 134.244 263.195,136.325 262.911,138.000 262.400 C 139.430 261.963,141.536 261.605,142.679 261.603 C 143.823 261.601,146.163 261.167,147.879 260.639 C 149.596 260.110,151.990 259.446,153.200 259.164 C 154.410 258.881,155.580 258.536,155.800 258.397 C 156.020 258.258,157.010 257.895,158.000 257.591 C 158.990 257.286,160.390 256.714,161.112 256.319 C 161.834 255.923,162.770 255.600,163.193 255.600 C 163.616 255.600,164.376 255.440,164.881 255.244 C 166.851 254.480,173.167 252.740,176.800 251.962 C 178.010 251.703,180.530 251.020,182.400 250.445 C 187.711 248.813,205.328 248.966,209.146 250.678 C 211.445 251.708,214.731 252.107,222.200 252.260 C 226.160 252.342,229.760 252.570,230.200 252.768 C 233.798 254.386,236.475 254.497,275.538 254.656 L 312.877 254.808 314.388 253.958 C 317.207 252.375,318.162 249.529,316.759 246.900 C 314.986 243.579,317.986 243.832,277.000 243.546 C 241.959 243.301,237.150 243.170,235.400 242.417 C 234.960 242.228,234.240 241.926,233.800 241.747 C 233.360 241.568,229.670 241.299,225.600 241.149 C 217.829 240.863,215.112 240.512,212.800 239.494 C 209.639 238.102,187.108 236.922,184.000 237.985 M205.979 238.843 C 207.861 239.086,210.300 239.562,211.400 239.900 C 215.316 241.102,216.695 241.275,224.600 241.553 C 229.970 241.741,232.913 242.006,233.551 242.358 C 235.760 243.577,239.604 243.722,275.800 243.959 C 316.039 244.222,314.104 244.100,315.776 246.487 C 316.661 247.751,316.575 250.631,315.610 251.985 C 313.980 254.275,315.308 254.200,276.200 254.200 C 238.988 254.200,235.983 254.087,231.818 252.537 C 230.713 252.126,227.597 251.831,222.000 251.607 C 216.408 251.382,213.100 251.069,211.600 250.621 C 205.202 248.712,201.278 248.273,192.600 248.495 C 186.130 248.661,185.076 248.789,182.200 249.756 C 180.440 250.347,177.650 251.105,176.000 251.439 C 171.898 252.269,164.160 254.562,159.741 256.257 C 156.625 257.453,152.034 258.842,146.000 260.416 C 145.230 260.617,143.874 260.785,142.987 260.790 C 142.100 260.796,140.390 261.072,139.187 261.404 C 137.984 261.736,134.902 262.171,132.338 262.370 C 129.773 262.569,127.314 262.925,126.872 263.161 C 124.923 264.204,114.916 264.930,100.200 265.095 C 83.526 265.283,80.966 265.057,76.600 263.014 C 75.060 262.294,72.918 261.576,71.839 261.418 C 61.749 259.948,53.681 253.241,55.203 247.588 C 56.302 243.509,60.984 242.307,63.486 245.463 C 66.605 249.398,69.180 250.746,75.206 251.601 C 76.831 251.831,78.709 252.374,79.380 252.807 C 82.650 254.916,82.045 254.862,99.944 254.653 C 116.990 254.454,122.713 254.127,124.302 253.261 C 124.799 252.991,127.409 252.598,130.102 252.388 C 132.796 252.179,135.984 251.735,137.187 251.404 C 138.390 251.072,140.139 250.800,141.073 250.800 C 142.008 250.800,143.543 250.552,144.486 250.250 C 145.429 249.947,147.100 249.476,148.200 249.204 C 150.943 248.525,154.604 247.266,157.000 246.179 C 158.100 245.680,159.720 245.151,160.600 245.004 C 161.480 244.857,162.890 244.476,163.733 244.158 C 164.575 243.841,167.905 242.938,171.133 242.153 C 174.360 241.368,178.440 240.303,180.200 239.787 C 181.960 239.271,183.850 238.772,184.400 238.679 C 186.601 238.305,202.775 238.428,205.979 238.843 M114.000 299.487 C 109.968 301.541,111.329 308.691,117.144 316.000 C 120.243 319.897,125.524 327.211,126.384 328.800 C 127.302 330.495,132.531 337.777,136.006 342.200 C 139.620 346.800,141.196 349.289,143.815 354.534 C 147.631 362.177,147.874 362.400,152.375 362.400 C 158.573 362.400,159.247 360.004,154.965 353.200 C 153.788 351.330,152.273 348.450,151.599 346.800 C 150.437 343.958,148.033 340.269,144.430 335.800 C 141.057 331.618,137.539 326.933,136.490 325.229 C 134.101 321.348,129.834 315.231,127.401 312.200 C 125.988 310.440,124.155 307.666,123.327 306.036 C 119.999 299.488,117.475 297.716,114.000 299.487 M328.600 302.853 C 326.469 303.915,326.216 304.884,325.958 313.000 C 325.693 321.329,325.193 323.371,322.883 325.582 C 320.693 327.677,318.686 330.453,316.813 333.976 C 315.757 335.963,313.785 338.986,312.432 340.694 C 308.449 345.722,301.809 355.874,299.543 360.400 C 298.387 362.710,297.018 365.119,296.501 365.753 C 294.543 368.157,295.621 368.678,302.710 368.753 L 307.220 368.800 307.634 367.700 C 308.717 364.827,311.308 360.570,315.241 355.200 C 316.127 353.990,317.397 351.981,318.063 350.736 C 318.728 349.492,319.579 348.142,319.954 347.736 C 322.378 345.118,324.543 342.021,325.795 339.384 C 326.686 337.507,328.130 335.380,329.553 333.850 C 335.046 327.946,336.646 322.822,336.328 312.150 C 336.077 303.688,333.396 300.462,328.600 302.853 M251.082 309.181 C 250.045 310.092,249.622 310.895,249.239 312.681 C 248.625 315.544,246.224 320.674,244.040 323.791 C 243.138 325.079,242.399 326.328,242.397 326.566 C 242.395 326.805,241.599 328.392,240.627 330.093 C 239.656 331.794,238.636 334.224,238.362 335.493 C 237.941 337.439,236.023 341.930,234.301 345.000 C 232.595 348.044,232.600 348.009,232.600 356.000 L 232.600 363.800 237.600 363.800 L 242.600 363.800 242.803 357.400 L 243.006 351.000 244.977 347.000 C 247.091 342.711,247.984 340.532,247.994 339.645 C 248.003 338.848,252.304 330.075,253.399 328.622 C 256.122 325.005,259.723 316.322,259.730 313.355 C 259.740 308.935,254.334 306.326,251.082 309.181 M50.803 325.143 C 46.981 327.192,47.097 332.224,51.040 335.455 C 53.538 337.501,55.600 340.272,55.600 341.582 C 55.600 342.168,56.230 343.927,57.000 345.490 C 57.770 347.053,58.401 348.482,58.402 348.666 C 58.403 348.994,59.209 350.629,61.324 354.600 C 61.910 355.700,63.468 358.130,64.785 360.000 C 66.103 361.870,67.569 364.120,68.044 365.000 C 69.249 367.232,69.079 367.187,76.300 367.194 C 82.250 367.199,83.646 366.970,82.391 366.195 C 81.481 365.632,71.200 351.354,71.200 350.652 C 71.200 350.529,70.653 349.567,69.984 348.514 C 69.315 347.461,68.479 345.610,68.127 344.400 C 67.774 343.190,67.249 341.838,66.959 341.395 C 66.670 340.953,66.068 339.423,65.622 337.995 C 64.626 334.809,64.294 334.308,59.818 329.261 C 55.405 324.283,53.785 323.543,50.803 325.143 " stroke="none" fill="#acd3e3" fill-rule="evenodd"></path></g></svg>